<svg width="200" height="200" viewBox="0 0 200 200" fill="none" xmlns="http://www.w3.org/2000/svg">
<g clip-path="url(#clip0_1_413)">
<path d="M100 200C155.228 200 200 155.228 200 100C200 44.7715 155.228 0 100 0C44.7715 0 0 44.7715 0 100C0 155.228 44.7715 200 100 200Z" fill="#191919"/>
<mask id="mask0_1_413" style="mask-type:luminance" maskUnits="userSpaceOnUse" x="18" y="31" width="395" height="138">
<path d="M411.1 162.9C409.1 162.9 407.9 163.3 406.7 163.3C405.1 163.7 403.9 163.7 398 163.3C392 162.9 389.3 163.3 386.5 163.7C384.9 164.1 382.9 164.1 380.5 164.1C375.3 164.1 371 163.7 365.4 162.1C361.4 160.1 355.1 156.5 350.7 151C331.2 126 300.2 129.5 280.3 127.5C275.1 127.1 270 125.9 264.4 124.3C264 124.3 263.6 124.3 263.6 123.9C263.2 123.9 262.4 123.5 262 123.5C247.7 119.5 231.4 114 204.8 113.2C172.6 112 153.1 118.8 147.6 120.8L146.8 121.6V121.2C146 121.6 146 121.6 146 121.6C168.3 47.2 109.5 27.3 88.8 31.7C87.6 32.1 74.1 44.8 64.2 44.4C28 42.8 18 46.8 18 46.8C26.7 55.9 60.5 60.3 60.5 60.3C60.5 60.3 71.2 67.9 85.1 76.6C99 85.3 100.2 88.5 99.8 102C105.4 101.2 116.5 101.6 128.4 104C128.4 104 144.3 108.8 144.7 113.9C145.1 119.1 142.7 123 138.3 125.8C134.3 128.2 103.7 112.3 98.2 109.1C95.8 113.5 91.8 118.2 87.9 122.2C91.5 123.8 93.9 126.2 93.9 126.2C103.8 130.6 124.9 138.9 131.3 136.9C131.3 136.9 111.4 142.5 118.6 155.2C118.6 155.2 83.6 155.2 74.5 146.5C74.5 146.5 74.5 143.7 75.7 140.5H73.7C71.7 140.5 60.6 142.9 58.2 147.3C57.8 148.5 57.4 149.7 58.6 151.7C60.6 154.5 67.3 157.7 79.3 160.4C89.6 162.8 100 164.8 105.9 165.2C119 166.8 142.5 168.4 142.5 168.8C142.9 168.8 143.7 168.4 143.7 167.6C143.7 166.8 143.3 166.4 142.5 166.4C142.1 166.4 118.7 164.4 105.9 162.8C99.5 162 88.8 160.4 79.7 158C65.4 154.4 61.4 151.6 60.6 150.1C59.8 148.9 60.2 148.5 60.2 148.1C61.8 144.9 70.1 142.9 73.3 142.5C72.5 145.7 72.1 146.9 72.1 146.9C76.1 152.9 85.2 154.8 144 159.6C144 159.6 144 159.6 144.4 159.6C145.2 159.6 145.6 159.6 146.4 159.6C146.8 159.6 147.2 159.6 147.2 159.6C148 159.6 148.4 159.6 149.2 159.6C149.6 159.6 150 159.6 150 159.6C150.4 159.6 150.4 159.6 150.8 159.6C164.3 160.8 179.8 162 198.1 163.2C220.4 164.8 240.6 166 258.9 166.4H259.3C259.7 166.4 259.7 166.4 260.1 166.4C260.9 166.4 262.1 166.4 262.9 166.4H263.3C318.1 167.6 354.3 164.8 366.2 163.6C371.4 164.8 375.7 165.2 380.9 165.2C383.3 165.2 385.3 164.8 386.9 164.8C389.7 164.4 392.5 164 398 164.4C404.4 164.8 405.6 164.4 407.5 164.4C408.3 164.4 409.5 164 411.5 164C412.3 164 412.7 163.6 412.7 162.8C412.3 163.3 411.9 162.5 411.1 162.9ZM85.2 54C82.8 54 81.2 52.4 81.2 50C81.2 47.6 82.8 46 85.2 46C87.6 46 89.2 47.6 89.2 50C89.2 52.4 87.6 54 85.2 54Z" fill="white"/>
</mask>
<g mask="url(#mask0_1_413)">
<path d="M100 200C155.228 200 200 155.228 200 100C200 44.7715 155.228 0 100 0C44.7715 0 0 44.7715 0 100C0 155.228 44.7715 200 100 200Z" fill="white" stroke="#231F20" stroke-miterlimit="10" stroke-linecap="round"/>
</g>
</g>
<defs>
<clipPath id="clip0_1_413">
<rect width="200" height="200" fill="white"/>
</clipPath>
</defs>
</svg>
